<svg width="873" height="554" viewBox="0 0 873 554" fill="none" xmlns="http://www.w3.org/2000/svg">
<path d="M714.231 551H142.231C64.9471 531.955 35.4205 509.508 10.2314 446C0.927508 392.497 0.868133 362.503 10.2314 309C15.8312 279.111 22.1326 265.853 42.2314 252C100.756 238.423 135.139 261.187 199.231 358C260.968 422.719 300.038 441.539 377.231 446H675.231C805.294 432.393 848.711 396.521 847.231 257C844.033 124.291 806.651 83.6229 675.231 71H432.231C397.068 68.1665 382.36 62.9021 377.231 38C381.03 16.4631 387.941 6.51727 432.231 3H761.231C793.462 3.31817 811.033 7.41704 841.231 24C860.823 43.7154 869.833 57.1461 870.231 100V379C867.594 410.819 859.75 433.092 828.231 485C798.899 523.614 778.151 539.725 714.231 551Z" stroke="white" stroke-width="5"/>
</svg>
