<svg width="1160" height="818" viewBox="0 0 1160 818" fill="none" xmlns="http://www.w3.org/2000/svg">
<path d="M899.232 815H230.232C99.1882 784.54 58.3671 742.124 22.2315 638C-5.2598 529.665 -1.49239 470.944 22.2315 368C58.995 288.304 95.0567 259.534 190.232 240C298.331 242.706 343.685 279.191 414.232 368C450.623 403.618 474.217 419.527 523.232 439H797.232C839.39 434.584 847.513 421.399 846.232 387C839.237 356.486 827.583 347.867 797.232 343H523.232C395.154 317.094 365.29 273.029 355.232 164C382.961 59.1915 422.41 24.6352 523.232 3H918.232C984.032 9.44583 1017.67 16.3136 1067.23 39C1134.8 82.9393 1150.21 112.223 1157.23 164V568C1147.75 639.355 1128.05 668.528 1091.32 722.91L1089.23 726C1051.16 782.391 988.728 804.906 899.232 815Z" stroke="white" stroke-width="5"/>
</svg>
